<?xml version="1.0" standalone="no"?>
<!DOCTYPE svg PUBLIC "-//W3C//DTD SVG 20010904//EN"
 "http://www.w3.org/TR/2001/REC-SVG-20010904/DTD/svg10.dtd">
<svg version="1.0" xmlns="http://www.w3.org/2000/svg"
 width="512.000000pt" height="512.000000pt" viewBox="0 0 512.000000 512.000000"
 preserveAspectRatio="xMidYMid meet">
<metadata>
Created by potrace 1.11, written by Peter Selinger 2001-2013
</metadata>
<g transform="translate(0.000000,512.000000) scale(0.100000,-0.100000)"
fill="#000000" stroke="none">
<path d="M4063 4053 c-18 -9 -33 -21 -33 -25 0 -5 -4 -6 -10 -3 -5 3 -10 1
-10 -4 0 -6 -6 -11 -13 -11 -14 0 -119 -50 -127 -60 -3 -4 -12 -7 -20 -8 -25
-1 -57 -10 -79 -22 -12 -6 -21 -9 -21 -6 0 3 -12 -1 -27 -9 -15 -8 -30 -12
-35 -9 -4 3 -8 0 -8 -5 0 -6 -3 -10 -7 -9 -5 1 -19 -4 -33 -12 -14 -8 -34 -15
-45 -17 -10 -2 -22 -8 -26 -15 -4 -6 -12 -7 -18 -4 -6 4 -11 3 -11 -2 0 -10
-41 -25 -75 -27 -26 -1 -85 -28 -85 -37 0 -5 -7 -8 -15 -8 -8 0 -15 -5 -15
-10 0 -6 -3 -9 -7 -8 -5 1 -21 -4 -38 -11 -16 -7 -31 -12 -33 -11 -2 1 -14 -6
-28 -14 -13 -9 -24 -13 -25 -9 0 5 -4 -2 -10 -15 -5 -13 -13 -21 -18 -17 -5 3
-12 1 -16 -5 -4 -6 -11 -8 -16 -5 -5 4 -9 1 -9 -4 0 -6 -3 -10 -7 -9 -13 4
-83 -34 -83 -44 0 -5 -5 -6 -10 -3 -6 3 -16 0 -24 -7 -8 -7 -29 -24 -47 -38
-56 -43 -66 -52 -49 -45 8 4 4 -3 -10 -14 -14 -11 -33 -23 -42 -27 -10 -3 -18
-10 -18 -15 0 -5 -6 -9 -14 -9 -8 0 -16 -7 -20 -15 -3 -8 -10 -14 -15 -13 -5
2 -26 -15 -46 -37 -21 -22 -34 -33 -30 -25 3 8 -3 5 -14 -8 -11 -13 -22 -23
-25 -22 -20 1 -25 -2 -31 -19 -4 -12 -13 -18 -24 -16 -49 9 -103 30 -120 47
-11 10 -25 18 -31 18 -5 0 -10 5 -10 10 0 6 -7 10 -15 10 -8 0 -15 7 -15 15 0
8 -3 14 -7 13 -15 -3 -63 14 -63 23 0 5 -6 9 -14 9 -7 0 -19 7 -26 15 -7 9
-19 14 -27 11 -8 -3 -11 -1 -8 4 3 6 -3 10 -14 10 -12 0 -21 4 -21 9 0 5 -16
15 -35 21 -19 6 -35 16 -35 21 0 6 -4 8 -9 4 -5 -3 -12 -1 -16 5 -4 6 -11 8
-16 5 -5 -4 -9 -2 -9 4 0 5 -9 13 -20 16 -11 4 -32 17 -47 31 -23 22 -43 29
-66 25 -5 -1 -6 3 -3 8 3 5 -5 12 -19 15 -14 4 -24 12 -22 18 1 7 -3 12 -10
13 -7 0 -21 7 -31 16 -10 8 -23 14 -30 11 -7 -2 -12 1 -12 7 0 6 -3 10 -7 9
-5 -1 -21 5 -38 14 -16 9 -49 21 -73 27 -27 8 -40 16 -36 23 4 6 3 8 -3 5 -12
-8 -73 14 -73 26 0 4 -4 6 -9 3 -5 -3 -22 1 -37 9 -16 8 -34 15 -40 15 -6 0
-50 21 -98 46 -47 25 -86 42 -86 37 0 -4 -4 -2 -9 5 -4 7 -14 15 -22 16 -15 3
-42 13 -74 26 -53 23 -86 22 -111 -1 -13 -12 -24 -28 -24 -34 0 -8 -15 -12
-42 -11 -43 2 -93 -15 -81 -27 3 -4 1 -7 -6 -7 -7 0 -11 -6 -8 -14 3 -8 -1
-20 -9 -27 -18 -15 -48 -69 -38 -69 4 0 1 -7 -6 -15 -7 -8 -13 -31 -14 -50 -1
-30 -7 -38 -36 -53 -31 -15 -35 -22 -36 -57 -1 -22 2 -44 5 -50 3 -5 6 -41 6
-80 2 -72 11 -119 23 -111 4 2 7 -12 6 -32 0 -21 3 -42 7 -47 4 -6 9 -36 11
-68 1 -31 6 -57 9 -57 4 0 7 -15 7 -32 0 -18 7 -49 15 -68 16 -37 26 -84 31
-135 1 -17 5 -36 9 -42 4 -6 1 -14 -5 -16 -10 -4 -10 -6 0 -6 9 -1 12 -120 12
-561 0 -387 3 -560 11 -560 5 0 7 -5 3 -12 -4 -7 -3 -8 5 -4 6 4 14 0 17 -8 3
-9 11 -13 16 -10 6 4 22 8 37 9 22 2 26 -2 27 -26 2 -46 17 -56 92 -58 37 -1
68 -6 70 -11 2 -5 10 -6 18 -3 8 3 14 1 14 -5 0 -9 39 -25 65 -27 6 0 31 -15
57 -33 26 -17 56 -32 66 -32 11 0 22 -5 24 -12 2 -6 14 -12 25 -13 12 0 28 -7
37 -14 9 -8 16 -10 16 -6 0 4 7 2 15 -5 8 -7 15 -9 15 -6 0 4 7 0 16 -8 8 -9
20 -14 25 -11 5 4 9 -1 9 -9 0 -9 5 -17 10 -17 19 -3 25 -5 48 -17 12 -7 22
-10 22 -6 0 3 6 1 13 -5 8 -6 17 -8 20 -4 4 3 7 -1 7 -11 0 -9 5 -14 10 -11 6
3 10 2 10 -4 0 -8 43 -23 72 -25 3 -1 10 -4 14 -9 4 -4 15 -7 24 -7 9 0 26 -9
38 -20 12 -11 26 -20 32 -20 6 0 8 -4 5 -10 -3 -6 1 -7 9 -4 9 3 23 -1 31 -10
9 -9 23 -16 31 -16 8 0 14 -4 14 -10 0 -5 6 -10 14 -10 8 0 21 -8 28 -17 7
-10 34 -29 61 -42 26 -13 47 -28 47 -33 0 -5 4 -6 10 -3 6 3 10 1 10 -5 0 -7
5 -10 12 -8 6 2 32 -17 58 -43 27 -26 50 -46 52 -43 3 2 15 -7 28 -21 13 -14
30 -25 38 -25 10 0 13 -8 9 -26 -3 -17 0 -28 10 -31 9 -4 11 -8 5 -12 -14 -8
-1366 -4 -1412 4 -30 6 -40 2 -63 -21 -15 -14 -27 -23 -27 -19 0 21 -50 -53
-51 -75 -1 -48 -10 -85 -22 -92 -7 -4 -8 -8 -3 -8 5 0 3 -7 -4 -15 -8 -9 -9
-15 -2 -15 7 0 6 -9 -3 -26 -23 -44 0 -104 40 -104 18 0 67 -34 60 -42 -3 -2
24 -4 59 -4 35 1 62 -2 59 -6 -6 -10 -15 -10 270 -12 137 0 251 2 254 7 2 4 8
5 13 2 5 -3 11 -2 13 2 7 11 1510 9 1527 -2 19 -12 344 -13 390 -2 31 7 236
13 668 20 72 1 132 5 132 10 0 4 5 7 11 7 15 0 38 25 48 52 9 25 -5 78 -20 78
-5 0 -9 15 -9 33 0 19 -3 37 -7 41 -4 3 -8 23 -10 43 -1 19 -7 41 -13 48 -5 6
-7 15 -3 18 3 4 1 7 -6 7 -8 0 -11 6 -7 16 3 8 2 12 -3 9 -5 -3 -12 3 -15 12
-3 10 -18 27 -32 38 -26 19 -43 20 -380 20 -195 1 -354 -2 -354 -6 0 -4 -105
-8 -232 -9 -128 -1 -251 -4 -273 -6 -22 -3 -98 -6 -170 -7 -110 -2 -130 0
-130 13 0 8 5 14 12 13 6 -2 14 6 18 16 3 10 17 23 30 29 14 6 25 16 25 22 0
5 3 9 8 8 4 -2 8 2 10 7 2 6 12 15 22 20 10 6 19 13 19 18 1 10 39 47 50 47 4
0 16 11 27 24 10 14 21 23 25 20 4 -2 27 6 51 19 24 13 59 32 78 43 19 10 37
22 40 25 8 9 53 23 68 21 6 -2 12 2 12 8 0 5 8 10 18 10 21 0 106 27 151 49
19 9 39 15 43 13 4 -1 8 3 8 9 0 6 7 9 15 6 8 -4 17 -2 20 3 4 6 15 10 26 10
11 0 18 4 15 9 -3 4 5 8 17 7 12 -1 25 3 29 8 3 5 12 11 20 12 54 9 76 16 120
38 28 14 55 23 59 20 5 -3 9 -1 9 4 0 5 6 9 13 10 92 6 172 56 184 114 3 16 9
31 13 33 5 3 6 14 3 25 -3 11 0 20 6 20 5 0 8 6 5 14 -3 7 7 27 21 44 15 18
24 36 21 41 -4 5 -2 12 2 15 5 3 8 15 7 28 -3 27 23 60 39 51 6 -3 8 -3 4 1
-4 5 -3 18 2 30 5 13 4 30 -3 41 -6 11 -11 56 -12 100 -1 44 -5 87 -8 95 -6
14 -10 223 -19 1138 -2 188 0 342 4 342 5 0 8 9 8 19 0 11 4 22 8 25 5 3 8 23
8 46 -1 22 1 40 5 40 4 0 9 18 13 39 3 22 12 46 19 53 17 19 20 32 25 132 3
69 1 87 -9 81 -8 -5 -10 -4 -5 4 11 17 -19 41 -51 40 -15 0 -43 -8 -60 -16z
m-9 -162 c3 -4 -1 -17 -9 -27 -8 -10 -15 -30 -15 -44 0 -15 -4 -30 -10 -36 -5
-5 -11 -22 -12 -37 -1 -15 -5 -27 -9 -27 -4 0 -5 -8 -2 -18 2 -10 -1 -31 -8
-47 -7 -17 -14 -37 -16 -45 -5 -18 -7 -681 -2 -727 2 -18 6 -33 9 -33 3 0 6
-168 6 -372 1 -205 4 -417 8 -471 3 -53 1 -107 -4 -120 -5 -12 -9 -16 -9 -8
-1 11 -4 11 -16 1 -8 -7 -15 -9 -15 -4 0 5 -4 3 -9 -5 -6 -9 -29 -15 -63 -16
-60 -2 -83 -7 -131 -30 -19 -9 -49 -15 -68 -14 -19 1 -43 -2 -53 -6 -14 -6
-17 -5 -12 3 5 8 2 10 -8 6 -9 -3 -16 -11 -16 -17 0 -6 -3 -8 -6 -4 -4 3 -19
0 -35 -8 -16 -9 -32 -15 -36 -14 -4 1 -10 0 -13 -1 -3 -1 -34 -4 -70 -6 -83
-5 -90 -6 -90 -15 0 -4 -9 -6 -20 -4 -11 2 -20 1 -20 -3 0 -4 -19 -8 -42 -10
-23 -1 -48 -8 -55 -14 -7 -6 -13 -7 -13 -3 0 4 -7 2 -15 -5 -8 -6 -19 -9 -24
-6 -5 4 -12 2 -16 -4 -4 -6 -10 -8 -15 -5 -5 3 -11 1 -15 -5 -4 -6 -11 -8 -16
-4 -5 3 -15 1 -22 -5 -7 -5 -26 -12 -42 -15 -17 -3 -31 -10 -33 -16 -2 -5 -10
-10 -18 -10 -13 0 -143 -59 -154 -70 -3 -3 -20 -13 -38 -23 l-33 -19 2 46 c2
25 6 46 9 46 14 0 -5 830 -19 840 -3 3 -6 33 -6 67 0 35 -4 63 -8 63 -5 0 -6
4 -2 9 3 5 1 12 -4 16 -6 3 -8 12 -4 20 3 8 1 15 -4 15 -6 0 -9 19 -9 43 1 23
-3 65 -9 92 -6 28 -10 80 -9 118 0 37 -3 67 -7 67 -4 0 -7 24 -7 54 1 30 -3
61 -8 68 -5 7 -9 20 -8 28 1 8 2 21 3 28 0 7 6 10 11 7 6 -3 10 -1 10 4 0 6 4
10 8 8 9 -2 50 25 89 60 14 12 34 25 44 28 11 4 19 11 19 16 0 5 7 9 17 9 9 0
13 3 10 7 -6 5 34 41 41 35 1 -1 11 7 22 18 11 11 27 20 35 20 8 0 14 3 12 8
-1 4 8 17 21 30 12 12 22 20 22 17 0 -3 14 10 31 28 17 17 34 32 37 32 4 0 23
10 42 22 19 12 55 29 80 39 25 9 54 24 65 33 42 35 59 46 52 34 -5 -7 11 -2
35 10 24 12 45 25 46 30 2 4 9 7 17 7 7 0 18 6 24 14 7 8 20 13 29 11 9 -1 31
3 49 10 17 7 34 11 37 7 3 -3 6 0 6 6 0 7 8 12 18 12 9 0 26 7 36 15 10 8 23
12 27 9 5 -3 9 0 9 6 0 6 4 9 9 5 5 -3 12 -1 16 5 4 6 11 8 16 5 5 -4 9 -1 9
4 0 6 9 11 20 11 11 0 20 5 20 11 0 6 9 9 20 6 10 -3 20 -1 22 4 2 5 14 10 28
13 14 2 25 5 25 6 0 1 13 4 30 6 16 3 32 10 36 16 3 5 10 10 15 10 15 1 99 42
102 51 5 10 20 9 26 -2z m-2789 -65 c7 3 27 -1 43 -10 16 -8 32 -13 36 -11 3
3 4 2 1 -2 -6 -8 45 -34 55 -28 4 3 11 -2 14 -11 3 -8 10 -12 16 -9 5 3 10 1
10 -5 0 -7 6 -10 12 -8 7 3 19 -2 27 -9 7 -8 20 -12 28 -9 8 3 11 1 8 -4 -3
-6 3 -10 14 -10 11 0 23 -5 26 -11 4 -5 12 -8 18 -6 7 2 18 -2 25 -10 8 -7 18
-11 23 -8 5 4 9 1 9 -5 0 -6 4 -9 9 -5 5 3 15 -1 23 -8 7 -8 19 -12 26 -9 6 2
12 -2 12 -9 0 -7 3 -10 6 -6 4 3 22 0 40 -8 19 -8 34 -11 34 -7 0 4 4 2 8 -4
4 -6 32 -23 62 -38 30 -15 67 -39 82 -53 14 -14 31 -22 37 -19 6 4 11 3 11 -2
0 -5 9 -12 20 -15 11 -3 20 -13 20 -22 0 -9 5 -13 11 -9 6 3 14 2 18 -3 8 -11
143 -78 154 -75 4 1 7 -3 7 -9 0 -5 5 -7 10 -4 6 3 10 2 10 -2 0 -5 16 -15 36
-22 19 -7 38 -19 41 -27 3 -8 9 -11 14 -8 5 3 9 0 9 -5 0 -6 6 -11 13 -11 7 0
20 -8 29 -17 22 -24 46 -43 53 -43 3 0 9 0 13 0 5 0 18 -9 30 -20 12 -12 22
-18 22 -15 0 3 9 1 20 -5 14 -8 19 -20 19 -48 -1 -20 2 -50 6 -67 7 -29 9 -47
20 -185 10 -110 10 -115 16 -125 3 -5 5 -38 4 -72 -1 -35 2 -63 6 -63 9 0 22
-57 24 -105 1 -22 5 -56 10 -75 14 -60 28 -787 16 -805 -4 -5 -7 -31 -6 -57 1
-31 -3 -48 -11 -48 -6 0 -18 -9 -25 -21 -9 -13 -20 -18 -31 -14 -10 4 -15 11
-12 16 3 5 -4 9 -15 9 -12 0 -21 4 -21 8 0 4 -10 9 -22 9 -13 1 -24 7 -26 13
-2 5 -9 10 -16 10 -7 0 -22 9 -34 20 -12 11 -23 20 -24 19 -7 -3 -58 25 -58
32 0 9 -76 41 -110 46 -13 3 -27 7 -30 11 -3 4 -14 9 -25 10 -11 2 -22 7 -25
10 -3 4 -14 9 -25 10 -11 2 -21 8 -23 13 -2 5 -12 9 -23 9 -10 0 -33 9 -51 19
-17 11 -35 18 -40 15 -4 -3 -8 -1 -8 5 0 5 -8 10 -17 10 -29 0 -76 12 -111 28
-18 8 -43 17 -55 19 -12 3 -29 7 -37 9 -8 2 -20 4 -27 4 -6 1 -19 8 -27 17
-16 16 -45 26 -83 28 -11 0 -19 4 -16 9 2 4 -2 7 -9 7 -7 0 -25 7 -40 14 -15
8 -40 16 -55 18 -15 1 -30 5 -33 8 -11 11 -51 30 -63 30 -7 0 -23 9 -35 20
-12 12 -22 18 -22 14 0 -3 -7 -1 -14 6 -12 9 -15 43 -14 171 0 87 4 159 8 159
9 0 7 652 -3 668 -5 7 -3 12 5 12 10 0 10 2 1 8 -7 4 -14 30 -16 58 -2 28 -6
55 -9 60 -2 5 -4 25 -4 46 1 20 -2 34 -5 32 -4 -2 -7 11 -8 29 0 17 -1 39 -2
47 0 8 0 29 0 45 1 17 0 46 -3 65 -3 19 -7 61 -10 92 -2 31 -7 61 -10 67 -4 5
-2 13 4 16 8 5 7 11 -1 21 -7 8 -12 37 -13 65 0 27 -2 49 -5 49 -8 0 -12 72
-5 90 4 10 8 11 11 3 2 -7 10 -10 18 -7z m-152 -139 c-2 -4 -1 -13 4 -20 5 -7
9 -19 8 -27 -1 -8 3 -23 7 -32 6 -12 5 -18 -4 -19 -7 0 -8 -2 -3 -5 6 -2 10
-20 9 -39 -1 -19 2 -35 7 -35 6 0 5 -9 -1 -20 -10 -18 -7 -24 12 -21 3 0 3
-13 -2 -29 -4 -15 -6 -31 -2 -34 3 -3 6 -43 6 -89 1 -45 4 -86 7 -92 3 -5 7
-26 8 -45 2 -43 5 -62 11 -75 3 -5 5 -21 5 -35 0 -14 5 -28 10 -32 6 -5 5 -8
-3 -8 -9 0 -10 -5 -4 -17 5 -10 10 -38 10 -63 2 -65 2 -256 1 -316 -1 -29 1
-56 5 -62 3 -6 2 -13 -4 -17 -6 -4 -7 -11 -4 -17 9 -15 3 -145 -7 -163 -3 -5
-5 -102 -4 -215 1 -184 -1 -207 -17 -224 -12 -14 -14 -22 -7 -27 7 -4 7 -9 1
-12 -5 -4 -9 -40 -8 -82 1 -42 -3 -76 -9 -79 -7 -2 -10 188 -11 558 -1 551 -3
636 -21 686 -5 14 -8 35 -7 48 1 12 -3 25 -7 28 -5 3 -9 14 -9 25 0 10 -4 19
-9 19 -4 0 -7 16 -6 35 1 19 -2 35 -7 35 -4 0 -7 3 -7 8 1 4 1 9 0 12 -1 3 -4
30 -6 60 -4 63 -8 80 -18 96 -3 6 -8 25 -9 43 -1 17 -6 31 -10 31 -4 0 -8 43
-8 95 0 80 3 97 17 102 22 9 48 36 50 53 10 78 25 105 34 60 4 -19 5 -38 2
-43z m217 -1808 c0 -6 7 -9 15 -5 8 3 21 -1 29 -9 8 -8 21 -15 28 -15 8 0 18
-4 24 -10 5 -5 22 -11 37 -12 15 -1 27 -6 27 -10 0 -4 9 -8 20 -8 11 0 20 -4
20 -8 0 -5 6 -9 13 -10 26 -1 56 -11 95 -31 22 -11 42 -17 46 -14 3 4 6 1 6
-5 0 -7 14 -12 30 -12 17 0 30 -5 30 -10 0 -6 3 -9 8 -8 15 4 82 -13 78 -21
-3 -4 8 -6 25 -5 16 1 29 -2 29 -8 0 -5 4 -7 8 -4 5 3 20 -1 35 -9 14 -7 28
-11 30 -9 2 3 10 -2 17 -11 7 -8 23 -15 36 -15 13 0 24 -4 24 -10 0 -5 7 -7
15 -4 8 4 15 1 15 -7 0 -7 3 -9 7 -6 3 4 15 -1 26 -10 15 -13 18 -14 12 -3 -7
13 -6 13 7 2 15 -12 59 -28 103 -37 11 -3 27 -14 37 -25 9 -11 23 -20 32 -20
9 0 16 -4 16 -9 0 -5 11 -12 25 -15 14 -4 23 -11 20 -16 -3 -6 1 -7 9 -4 9 3
16 1 16 -5 0 -6 7 -11 16 -11 8 0 13 -4 10 -8 -2 -4 5 -9 16 -9 11 -1 35 -18
54 -37 19 -20 39 -36 44 -36 6 0 10 -7 10 -15 0 -8 5 -15 11 -15 5 0 8 -4 5
-9 -11 -17 34 -44 76 -46 38 -2 98 21 98 37 0 4 11 19 25 34 14 15 25 24 25
21 0 -3 17 11 38 32 37 38 80 67 95 63 4 -1 7 3 7 9 0 5 5 7 10 4 6 -3 10 -3
10 2 0 4 12 14 28 20 83 37 109 47 126 50 11 2 25 8 33 14 7 6 13 8 13 4 0 -4
6 -3 13 2 6 5 23 9 37 8 14 0 33 7 43 16 9 9 30 15 45 14 15 -1 30 3 34 9 5 7
8 6 8 -4 0 -11 2 -12 8 -3 5 7 20 14 35 15 15 1 27 5 27 8 0 3 28 6 63 6 56 1
166 26 192 43 6 4 36 7 68 6 31 0 57 3 57 7 0 4 3 7 8 6 4 -1 17 3 30 10 12 7
27 10 32 7 5 -3 11 -1 15 5 8 13 75 13 75 0 0 -5 -4 -10 -8 -10 -8 0 -28 -34
-30 -53 -4 -20 -34 -67 -45 -68 -6 0 -19 -2 -27 -5 -8 -2 -29 -7 -47 -10 -18
-3 -44 -17 -58 -30 -14 -13 -25 -20 -25 -17 0 3 -8 -1 -17 -8 -14 -12 -15 -12
-9 -1 7 11 4 12 -13 3 -12 -7 -26 -9 -31 -6 -5 3 -11 1 -15 -5 -4 -6 -11 -8
-16 -5 -5 4 -9 1 -9 -5 0 -6 -8 -10 -17 -8 -10 1 -30 -6 -45 -16 -15 -10 -32
-15 -38 -11 -5 3 -10 2 -10 -2 0 -5 -9 -14 -21 -21 -15 -10 -19 -10 -14 -1 9
13 -7 6 -34 -15 -8 -6 -21 -11 -30 -12 -9 0 -29 -6 -44 -12 -15 -7 -39 -15
-52 -18 -14 -3 -25 -9 -25 -13 0 -4 -13 -6 -30 -5 -16 1 -30 -1 -30 -5 0 -5
-55 -34 -70 -36 -22 -3 -50 -18 -50 -26 0 -6 -4 -7 -10 -4 -5 3 -10 1 -10 -5
0 -12 -61 -41 -72 -34 -5 3 -8 1 -8 -5 0 -6 -6 -8 -14 -5 -7 3 -23 -7 -36 -23
-12 -15 -25 -27 -28 -27 -4 1 -16 -5 -27 -12 -11 -8 -15 -14 -10 -14 6 0 1 -7
-9 -15 -11 -8 -16 -15 -12 -15 5 0 3 -7 -4 -15 -7 -8 -16 -12 -21 -9 -5 3 -6
-3 -2 -12 4 -11 3 -15 -4 -11 -6 4 -21 -5 -32 -19 -12 -15 -21 -23 -21 -18 -1
5 -10 -2 -20 -15 -11 -13 -20 -20 -20 -15 0 4 -6 0 -13 -11 -10 -12 -16 -14
-21 -7 -4 7 -25 12 -47 12 -21 0 -39 4 -39 8 0 12 -48 67 -58 67 -5 0 -16 8
-26 18 -10 9 -21 17 -25 17 -3 0 -23 16 -44 36 -20 20 -37 34 -37 30 0 -7 -33
20 -61 48 -11 11 -19 16 -19 10 0 -5 -5 -1 -11 8 -5 10 -16 15 -24 12 -8 -4
-15 -1 -15 5 0 6 -9 11 -20 11 -11 0 -20 5 -20 11 0 6 -7 8 -17 5 -10 -4 -14
-4 -11 -1 9 9 -35 54 -46 47 -4 -2 -11 1 -15 7 -4 6 -17 13 -29 16 -26 5 -84
36 -94 50 -4 6 -8 6 -8 1 0 -4 -11 -1 -25 8 -14 9 -29 14 -34 12 -5 -3 -18 3
-31 14 -12 10 -35 22 -51 25 -16 4 -29 11 -29 16 0 5 -9 9 -19 9 -11 0 -23 5
-26 11 -6 9 -60 34 -60 27 0 -1 -15 7 -32 20 -18 13 -33 20 -33 16 0 -3 -6 -1
-13 5 -8 6 -17 8 -20 4 -4 -3 -7 -1 -7 5 0 6 -7 9 -15 6 -8 -4 -15 -1 -15 6 0
6 -4 8 -10 5 -5 -3 -10 -1 -10 5 0 7 -7 9 -16 6 -8 -3 -13 -2 -10 2 2 4 -16
16 -40 27 -24 11 -44 22 -44 25 0 3 -10 7 -22 7 -13 1 -24 7 -26 13 -2 5 -8 8
-13 4 -5 -3 -12 2 -15 10 -3 9 -10 13 -15 10 -5 -3 -9 -1 -9 4 0 5 -11 7 -25
4 -15 -2 -25 0 -25 7 0 6 -6 11 -13 11 -8 0 -14 8 -15 18 -5 58 -2 95 9 108
14 17 39 19 39 3z"/>
<path d="M3578 3377 c-58 -51 -112 -92 -120 -89 -5 1 -8 -2 -8 -7 0 -5 -23
-21 -51 -35 -46 -25 -61 -27 -172 -28 -111 -1 -127 -4 -171 -27 -26 -14 -59
-36 -72 -47 -12 -12 -25 -19 -28 -17 -3 3 -8 -2 -12 -11 -3 -9 -10 -14 -14
-11 -5 3 -11 -4 -15 -15 -4 -11 -10 -18 -15 -15 -5 3 -11 -4 -15 -15 -3 -11
-11 -20 -16 -20 -6 0 -8 -4 -4 -9 3 -5 1 -12 -5 -16 -6 -4 -8 -11 -5 -16 4 -5
2 -9 -2 -9 -11 0 -9 -78 1 -102 7 -15 34 -30 61 -33 21 -3 55 39 55 66 0 40
18 75 46 88 13 6 24 15 24 21 0 5 7 10 15 10 8 0 15 5 15 10 0 6 5 10 12 10 6
0 19 6 27 14 12 11 51 15 143 17 77 2 124 7 121 13 -4 5 1 7 10 3 17 -6 67 13
67 26 0 5 5 5 10 2 6 -3 10 -1 10 4 0 6 6 11 13 11 7 0 23 9 35 20 12 12 22
18 22 14 0 -4 9 3 20 16 11 13 20 19 20 14 0 -5 7 0 15 10 8 11 15 16 15 12 0
-4 16 10 35 31 19 21 35 42 35 46 0 5 4 6 9 2 19 -11 6 60 -14 76 -31 24 -58
20 -97 -14z"/>
<path d="M3759 2871 c-13 -9 -26 -18 -29 -22 -9 -11 -41 -19 -35 -9 4 6 -2 7
-17 1 -23 -8 -70 -6 -98 6 -37 14 -87 8 -139 -18 -30 -15 -59 -25 -64 -22 -6
3 -7 1 -3 -5 6 -11 -6 -16 -26 -13 -5 0 -8 -3 -8 -8 0 -11 -24 -9 -27 2 -2 9
-43 46 -52 48 -43 7 -80 6 -74 -4 4 -6 0 -8 -10 -4 -10 3 -17 2 -17 -3 0 -6
-7 -10 -15 -10 -7 0 -19 -8 -24 -17 -6 -10 -11 -14 -11 -9 0 5 -8 -1 -19 -12
-10 -12 -21 -19 -25 -15 -3 3 -6 -1 -6 -10 0 -9 -4 -17 -10 -17 -5 0 -21 -9
-34 -21 -13 -12 -26 -19 -28 -18 -6 7 -36 -26 -31 -33 2 -4 -4 -5 -13 -1 -12
4 -15 3 -10 -5 4 -7 2 -12 -3 -12 -19 0 -55 -43 -56 -67 0 -13 3 -23 7 -23 4
0 8 -5 8 -10 0 -40 63 -43 104 -5 14 13 27 20 30 17 3 -3 6 0 6 6 0 7 5 12 12
12 7 0 23 12 36 28 13 15 20 21 17 14 -6 -11 -3 -11 13 -1 12 7 18 17 16 21
-3 4 -1 8 5 8 5 0 22 11 37 25 15 14 34 25 42 25 8 0 12 -3 9 -7 -4 -3 4 -14
18 -23 27 -18 114 -17 148 1 9 6 21 8 25 5 5 -3 14 4 22 14 8 10 17 17 22 14
4 -3 20 3 34 13 31 20 74 28 74 14 0 -15 181 -10 220 6 41 17 72 42 64 54 -3
5 0 9 6 9 13 0 4 54 -10 58 -5 2 -8 7 -6 11 3 4 -8 12 -23 17 -21 8 -33 7 -52
-5z"/>
<path d="M3667 2496 c4 -5 0 -7 -9 -3 -9 3 -21 0 -27 -6 -6 -6 -11 -8 -11 -4
0 4 -10 2 -22 -5 -13 -7 -25 -13 -28 -13 -16 -4 -60 -29 -60 -36 0 -6 -29 -17
-67 -25 -7 -1 -13 4 -13 12 0 9 -4 13 -9 10 -5 -3 -11 0 -14 8 -13 33 -110 22
-132 -15 -4 -5 -11 -7 -16 -4 -5 4 -9 2 -9 -3 0 -11 -80 -65 -97 -65 -7 0 -10
-3 -8 -7 2 -3 -13 -15 -33 -25 -20 -11 -41 -26 -45 -33 -5 -7 -12 -10 -18 -7
-5 4 -9 1 -9 -6 0 -7 -3 -9 -7 -6 -3 4 -29 -17 -57 -47 -59 -62 -67 -100 -28
-134 33 -29 57 -20 111 38 26 28 50 47 54 44 4 -4 7 -2 7 5 0 8 6 11 16 7 8
-3 13 -2 10 3 -6 9 22 26 37 23 4 -1 7 2 7 8 0 5 7 10 15 10 8 0 15 5 15 11 0
5 5 7 10 4 6 -3 13 1 16 9 3 9 10 14 14 11 4 -3 10 2 14 10 3 8 10 15 16 15 6
0 18 7 26 15 20 20 36 19 60 -3 10 -9 36 -19 56 -20 37 -3 118 24 118 40 0 4
3 7 8 6 11 -2 44 13 75 34 15 11 27 16 27 12 0 -3 6 -2 13 3 6 5 26 10 42 12
71 7 105 71 57 107 -26 19 -116 28 -105 10z"/>
<path d="M1360 3590 c0 -6 -4 -8 -10 -5 -5 3 -10 -1 -10 -9 0 -9 -4 -16 -9
-16 -15 0 -4 -50 21 -97 25 -48 45 -55 161 -56 54 0 77 -4 77 -12 0 -19 44
-44 86 -49 32 -4 74 -26 49 -26 -11 0 47 -50 60 -51 6 -1 15 -1 22 0 6 1 14
-8 18 -19 4 -11 11 -18 16 -15 5 4 9 2 9 -3 0 -5 14 -12 31 -16 17 -3 28 -9
25 -14 -8 -13 53 -45 89 -47 33 -3 75 -24 75 -38 0 -4 5 -5 10 -2 6 3 10 3 10
-2 0 -4 17 -9 38 -11 20 -1 66 -5 102 -8 45 -4 70 -1 83 8 25 18 31 65 13 94
-13 18 -23 22 -56 21 -22 -2 -41 2 -43 7 -2 5 -21 10 -43 10 -21 1 -58 11 -81
24 -24 12 -43 19 -43 16 0 -4 -6 -1 -13 5 -8 6 -17 8 -21 4 -4 -4 -9 2 -12 14
-3 12 -23 28 -47 39 -23 10 -44 21 -47 25 -3 3 -23 12 -45 20 -43 15 -65 31
-65 48 0 5 -9 13 -20 16 -11 3 -20 10 -20 14 0 4 -7 8 -15 9 -8 1 -22 3 -32 4
-9 1 -28 15 -43 31 -26 29 -29 30 -125 31 -76 2 -100 5 -103 16 -3 8 -11 21
-19 28 -18 18 -73 27 -73 12z"/>
<path d="M1476 3103 c-26 -26 -28 -44 -11 -105 4 -16 11 -25 16 -22 5 3 9 1 9
-5 0 -6 7 -8 15 -4 9 3 25 -3 36 -13 12 -11 22 -18 23 -16 0 2 9 0 18 -3 10
-4 16 -10 13 -14 -2 -4 1 -8 8 -8 21 0 145 -64 150 -77 3 -8 19 -11 44 -9 69
6 88 5 116 -6 15 -6 27 -14 27 -19 0 -5 33 -9 73 -10 101 -1 99 -1 93 -10 -3
-5 0 -9 7 -9 7 0 26 -4 42 -8 17 -3 47 -6 68 -5 l39 1 -3 -40 c-6 -73 62 -114
110 -66 10 10 16 38 17 92 2 77 1 78 -33 110 -32 29 -38 31 -99 29 -38 -1 -76
3 -90 11 -14 6 -27 12 -29 13 -3 0 -7 1 -10 2 -3 0 -26 2 -52 3 -61 2 -103 12
-103 26 0 6 -4 8 -9 4 -5 -3 -15 1 -23 8 -8 8 -36 12 -73 12 -34 -1 -69 5 -80
12 -11 7 -27 13 -37 13 -9 0 -23 7 -32 15 -8 9 -19 16 -23 15 -18 0 -43 12
-43 21 0 6 -4 7 -10 4 -5 -3 -10 -1 -10 5 0 6 -4 9 -9 6 -5 -3 -14 1 -21 9 -7
8 -17 12 -23 8 -6 -3 -7 -1 -3 5 7 11 -35 44 -60 48 -7 1 -25 -9 -38 -23z"/>
<path d="M1737 2678 c-5 -3 -19 -5 -29 -3 -10 2 -18 0 -18 -4 0 -4 -25 -7 -56
-6 -43 1 -60 -3 -77 -19 -43 -40 -17 -105 42 -107 39 -2 92 2 115 8 36 9 130
10 159 2 16 -5 37 -17 46 -28 10 -12 21 -18 25 -14 3 3 6 1 6 -5 0 -7 9 -12
20 -12 11 0 20 -4 20 -8 0 -4 15 -8 33 -9 52 -3 99 -12 112 -23 6 -5 15 -7 18
-3 4 3 7 1 7 -6 0 -7 4 -10 9 -6 5 3 13 0 16 -6 4 -5 13 -8 21 -5 8 3 14 2 14
-2 0 -14 75 -42 99 -37 32 6 43 18 47 51 5 50 -39 93 -101 101 -16 2 -32 8
-33 13 -2 6 -8 8 -13 5 -4 -3 -19 1 -31 9 -13 8 -36 17 -53 20 -16 2 -32 5
-35 6 -3 1 -13 2 -22 1 -10 -1 -18 3 -18 9 0 6 -4 8 -10 5 -5 -3 -10 0 -10 7
0 11 -2 10 -9 0 -7 -11 -9 -11 -14 2 -4 9 -16 16 -27 16 -11 0 -20 4 -20 8 0
5 -16 14 -35 22 -19 8 -35 16 -35 19 0 8 -150 7 -163 -1z"/>
<path d="M1566 2296 c-18 -23 -22 -86 -4 -86 6 0 8 -3 4 -7 -5 -5 65 -45 84
-48 3 0 10 -3 15 -6 6 -3 75 -5 155 -5 82 1 151 -3 158 -9 7 -5 21 -17 31 -26
9 -8 23 -13 29 -11 7 2 12 -2 12 -9 0 -7 3 -10 6 -6 4 3 13 -1 21 -9 8 -8 19
-12 24 -9 5 4 9 1 9 -4 0 -6 10 -11 23 -11 13 0 29 -6 36 -12 11 -11 13 -10 7
2 -6 11 -4 11 6 -1 18 -22 89 -60 100 -53 4 3 8 1 8 -4 0 -10 14 -12 85 -12
35 0 55 6 69 19 25 26 26 62 2 84 -23 20 -20 19 -72 21 -44 2 -136 35 -129 47
3 4 -7 10 -20 13 -14 4 -24 10 -21 14 2 4 -7 7 -21 6 -28 -1 -73 16 -73 29 0
4 -7 7 -16 7 -8 0 -21 6 -29 13 -37 35 -59 48 -78 47 -12 -1 -80 -2 -150 -1
-99 1 -127 4 -121 14 5 9 4 9 -6 0 -7 -6 -20 -9 -29 -5 -19 7 -42 28 -36 34 2
2 -11 4 -29 4 -22 0 -40 -8 -50 -20z"/>
</g>
</svg>
